<svg xmlns="http://www.w3.org/2000/svg" version="1.1" xmlns:xlink="http://www.w3.org/1999/xlink" xmlns:svgjs="http://svgjs.dev/svgjs" width="1500" height="1500" viewBox="0 0 1500 1500"><g transform="matrix(1,0,0,1,-0.7499999999998863,-0.7499999999998863)"><svg viewBox="0 0 280 280" data-background-color="#333b6a" preserveAspectRatio="xMidYMid meet" height="1500" width="1500" xmlns="http://www.w3.org/2000/svg" xmlns:xlink="http://www.w3.org/1999/xlink"><g id="tight-bounds" transform="matrix(1,0,0,1,0.13999999999998636,0.13999999999998636)"><svg viewBox="0 0 279.72 279.72" height="279.72" width="279.72"><g><svg viewBox="0 0 279.72 279.72" height="279.72" width="279.72"><g><svg viewBox="0 0 279.72 279.72" height="279.72" width="279.72"><g id="textblocktransform"><svg viewBox="0 0 279.72 279.72" height="279.72" width="279.72" id="textblock"><g><svg viewBox="0 0 279.72 279.72" height="279.72" width="279.72"><g transform="matrix(1,0,0,1,57.446704652707865,57.446704652707865)"><svg viewBox="0 0 164.8265906945843 164.8265906945843" height="164.8265906945843" width="164.8265906945843"><g id="icon-0"><circle r="82" cx="82.41329534729215" cy="82.41329534729215" fill="#cafbff" data-fill-palette-color="accent"></circle><svg xmlns="http://www.w3.org/2000/svg" data-name="Layer 2" viewBox="18.834201675658328 25.25999999992817 62.32579832434167 49.48000000014366" x="24.72398860418764" y="24.723988604187646" height="115.378613486209" width="115.378613486209" class="icon-jxe-0" data-fill-palette-color="quaternary" id="jxe-0"><path d="M78.55 33.34H73.07V27.86A2.61 2.61 0 0 0 70.46 25.26H39.84A2.61 2.61 0 0 0 37.23 27.86V38.35L29.78 30.9 27.11 28.22A1 1 0 0 0 26.4 27.93 1 1 0 0 0 25.69 28.22L19.13 34.77A1 1 0 0 0 19.13 36.19L21.81 38.87 37.23 54.27V64.05A2.61 2.61 0 0 0 39.84 66.65H45.32V72.14A2.61 2.61 0 0 0 47.93 74.74H78.55A2.61 2.61 0 0 0 81.16 72.14V35.94A2.61 2.61 0 0 0 78.55 33.34M37.55 41.47L43.41 47.33 41.55 49.19 34.37 42 27.21 34.84 29.07 33ZM44.28 49.28L45.64 54.68 40.2 53.34 41.2 52.34 42.2 51.34 43.11 50.43ZM21.28 35.47L26.42 30.34 27.68 31.6 25.11 34.17 22.54 36.74ZM23.96 38.15L25.82 36.29 33 43.45 40.16 50.61 38.3 52.47ZM39.84 64.66A0.61 0.61 0 0 1 39.23 64.06V55.16L46.75 57H64.16A1 1 0 0 0 64.16 55H47.77L45.77 47V46.87L45.72 46.77A1 1 0 0 0 46.22 46.92H64.22A1 1 0 0 0 64.22 44.92H46.22A1 1 0 0 0 45.3 46.3L39.3 40.3V27.86A0.6 0.6 0 0 1 39.91 27.26H70.46A0.6 0.6 0 0 1 71.07 27.86V64.06A0.61 0.61 0 0 1 70.46 64.66zM79.16 72.15A0.61 0.61 0 0 1 78.55 72.75H47.93A0.61 0.61 0 0 1 47.32 72.15V66.66H70.46A2.61 2.61 0 0 0 73.07 64.06V35.34H78.55A0.6 0.6 0 0 1 79.16 35.94Z" fill="#2d3a84" data-fill-palette-color="quaternary"></path><path d="M64.16 34.85H46.16A1 1 0 0 0 46.16 36.85H64.16A1 1 0 0 0 64.16 34.85" fill="#2d3a84" data-fill-palette-color="quaternary"></path></svg></g></svg></g><g id="text-0"><path d="M25.649 100.488v0c0.426-1.307 0.058-2.149-1.104-2.528v0c-0.402-0.131-0.871 0.029-1.407 0.48-0.536 0.451-1.117 1.029-1.744 1.735-0.618 0.702-1.28 1.39-1.986 2.063-0.708 0.68-1.547 1.174-2.516 1.483-0.963 0.311-1.951 0.302-2.962-0.027v0c-1.684-0.549-2.915-1.77-3.695-3.664-0.777-1.9-0.85-3.821-0.216-5.763v0c0.297-0.911 0.693-1.765 1.189-2.562 0.498-0.804 1.108-1.533 1.829-2.187v0l3.781 4.037c-0.208 0.127-0.47 0.291-0.786 0.494-0.316 0.203-0.782 0.631-1.399 1.285-0.614 0.648-1.018 1.267-1.21 1.857-0.195 0.597-0.211 1.095-0.05 1.495 0.161 0.4 0.475 0.676 0.94 0.828 0.465 0.152 1.074-0.129 1.828-0.843 0.75-0.722 1.487-1.534 2.212-2.437 0.727-0.91 1.681-1.651 2.862-2.226 1.177-0.582 2.384-0.672 3.622-0.268v0c1.765 0.575 3.077 1.806 3.936 3.691 0.865 1.887 0.989 3.776 0.372 5.667v0c-0.393 1.206-1.025 2.248-1.894 3.125-0.868 0.871-1.643 1.448-2.326 1.733v0l-1.013 0.42-2.503-4.12c0.25-0.085 0.571-0.217 0.962-0.395 0.394-0.184 0.978-0.602 1.753-1.253 0.769-0.653 1.277-1.359 1.525-2.12z" fill="#65b09f" data-fill-palette-color="primary"></path><path d="M20.584 73.247l1.184-1.972-3.721-2.235 1.882-5.135 4.339 3.207 2.475-4.121 2.571 2.053-2.332 3.883 7.018 4.446c1.071 0.643 1.843 0.968 2.316 0.975 0.474 0.007 0.874-0.261 1.201-0.805 0.33-0.549 0.642-1.352 0.937-2.408v0l2.544 1.25c0.35 2.253 0.185 3.946-0.495 5.079-0.684 1.139-1.657 1.822-2.919 2.05-1.271 0.231-2.578-0.057-3.921-0.864v0l-3.693-2.495-5.407-3.201-1.413 2.354z" fill="#65b09f" data-fill-palette-color="primary"></path><path d="M45.296 57.02c-2.407-2.386-3.806-5.062-4.198-8.027-0.387-2.96 0.283-5.311 2.009-7.052 1.73-1.746 3.64-2.541 5.729-2.387 2.094 0.15 4.072 1.148 5.935 2.995v0c2.487 2.465 3.933 5.141 4.338 8.026 0.405 2.886-0.335 5.279-2.219 7.179v0c-1.549 1.563-3.422 2.274-5.618 2.134-2.196-0.14-4.189-1.096-5.976-2.868zM53.109 47.167v0c-2.731-2.707-5.022-3.127-6.873-1.259v0c-1.921 1.938-1.601 4.177 0.961 6.716v0c1.337 1.326 2.651 2.089 3.941 2.289 1.3 0.2 2.391-0.146 3.276-1.038 0.888-0.896 1.216-1.916 0.981-3.059-0.225-1.144-0.987-2.36-2.286-3.649z" fill="#65b09f" data-fill-palette-color="primary"></path><path d="M64.485 26.144v0l3.566-3.387c1.264 1.621 2.406 3.192 3.425 4.714v0c0.122-4.452 1.09-7.229 2.901-8.331v0l2.844 5.533c-1.31 0.797-2.272 1.548-2.886 2.254-0.612 0.697-1.103 1.638-1.474 2.822v0l0.747 1.228 5.239 7.753-4.041 3.618-4.615-8.503c-1.938-2.982-3.84-5.549-5.706-7.701z" fill="#65b09f" data-fill-palette-color="primary"></path><path d="M105.267 37.7l-5.221 0.49 1.202-9.995-5.178-6.805-6.683-8.051 4.763-2.516 4.93 7.347 2.433 3.451 0.492-0.152 0.063-3.059-0.107-10.037 4.854-0.874-1.273 19.756z" fill="#65b09f" data-fill-palette-color="primary"></path><path d="M136.886 14.316c-0.006-1.83-0.172-3.052-0.498-3.666-0.319-0.607-1.06-0.908-2.223-0.904-1.169 0.004-2.496 0.474-3.979 1.411v0l0.01 2.904 0.477 9.344-5.329 1.009 0.443-9.665c-0.118-3.554-0.419-6.735-0.904-9.541v0l4.804-1.057c0.19 1.539 0.327 3.038 0.411 4.499v0c0.401-0.53 0.852-1.057 1.353-1.581 0.5-0.517 1.295-1.101 2.382-1.752 1.081-0.658 2.18-0.989 3.297-0.992 1.11-0.004 2.053 0.353 2.829 1.071 0.769 0.711 1.261 1.691 1.476 2.938v0c2.191-2.69 4.413-4.039 6.667-4.046v0c1.407-0.005 2.522 0.464 3.344 1.406 0.829 0.935 1.246 2.213 1.252 3.831v0l-0.223 4.461 0.468 9.543-5.368 1.009 0.441-10.26c-0.006-1.83-0.169-3.052-0.488-3.665-0.319-0.607-1.05-0.908-2.193-0.904-1.136 0.004-2.42 0.448-3.851 1.331v0l-0.149 2.983 0.468 9.543-5.368 1.009z" fill="#65b09f" data-fill-palette-color="primary"></path><path d="M172.842 9.156l5.404 0.479-3.15 9.41-2.101 9.118-5.401-0.49 3.074-9.173zM174.424 2.507c0.24-0.852 0.785-1.523 1.636-2.011 0.853-0.495 1.715-0.619 2.586-0.374 0.865 0.243 1.46 0.665 1.786 1.264 0.33 0.608 0.363 1.382 0.098 2.323-0.267 0.948-0.822 1.667-1.666 2.157-0.838 0.492-1.684 0.618-2.536 0.378-0.859-0.241-1.451-0.71-1.777-1.406-0.326-0.696-0.368-1.473-0.127-2.331z" fill="#65b09f" data-fill-palette-color="primary"></path><path d="M202.1 31.846c0.883-1.603 1.331-2.752 1.345-3.446 0.016-0.685-0.486-1.309-1.505-1.87-1.024-0.564-2.412-0.797-4.164-0.699v0l-1.401 2.544-4.12 8.4-5.148-1.705 5.08-8.234c1.623-3.164 2.904-6.091 3.842-8.78v0l4.712 1.409c-0.581 1.438-1.189 2.815-1.824 4.132v0c0.608-0.268 1.258-0.51 1.95-0.725 0.689-0.209 1.666-0.334 2.934-0.375 1.265-0.05 2.427 0.217 3.485 0.8 1.053 0.58 1.714 1.484 1.981 2.71 0.265 1.217 0.007 2.535-0.775 3.952v0l-2.36 3.792-4.224 8.569-5.184-1.724z" fill="#65b09f" data-fill-palette-color="primary"></path><path d="M209.401 54.22v0c1.656-1.642 4.487-1.387 8.49 0.766v0c-0.35-1.104-0.225-1.954 0.376-2.55v0c0.244-0.242 0.583-0.392 1.018-0.451 0.43-0.054 0.953-0.033 1.569 0.063v0l0.226-0.223c-1.34-1.351-2.029-2.803-2.07-4.354-0.045-1.547 0.564-2.946 1.827-4.197v0c1.638-1.623 3.727-2.369 6.268-2.236 2.541 0.133 4.719 1.114 6.533 2.944v0c0.465 0.469 1.053 1.25 1.762 2.341 0.705 1.087 1.488 2.065 2.349 2.933v0l2.156 2.175-2.742 2.16-1.84-2.377c-0.363 0.732-0.892 1.442-1.586 2.131-0.699 0.693-1.554 1.215-2.565 1.566-1.02 0.351-1.964 0.501-2.833 0.45-0.869-0.051-1.691-0.152-2.466-0.305-0.766-0.153-1.428-0.277-1.988-0.374-0.56-0.096-0.934-0.051-1.122 0.136v0c-0.361 0.358-0.301 1.043 0.18 2.054v0c1.17 2.794 1.822 4.827 1.956 6.098 0.135 1.262-0.213 2.305-1.043 3.129v0c-1.394 1.382-3.232 1.813-5.514 1.293-2.282-0.51-4.387-1.736-6.313-3.679-1.921-1.938-3.098-3.749-3.529-5.433-0.436-1.679-0.136-3.033 0.901-4.06zM229.717 50.994v0c0.924-0.916 1.398-1.795 1.421-2.636 0.022-0.841-0.406-1.705-1.286-2.592v0c-1.698-1.713-3.389-1.734-5.073-0.064-1.685 1.67-1.622 3.418 0.187 5.243v0c1.586 1.6 3.17 1.616 4.751 0.049zM219.798 62.85v0c0.338-0.335 0.478-0.827 0.42-1.477-0.067-0.65-0.36-1.63-0.877-2.94v0c-1.738-1.003-3.025-1.606-3.861-1.811-0.835-0.195-1.488-0.06-1.957 0.405-0.469 0.465-0.596 1.102-0.38 1.911 0.225 0.809 0.794 1.674 1.706 2.594 0.916 0.924 1.834 1.508 2.754 1.75 0.919 0.252 1.651 0.108 2.195-0.432z" fill="#65b09f" data-fill-palette-color="primary"></path><path d="M258.855 60.273l3.761 4.068-17.534 10.529-7.647 5.392-3.719-4.001 8.409-4.784z" fill="#65b09f" data-fill-palette-color="primary"></path><path d="M249.581 100.565v0c0.255 0.73 0.713 1.427 1.373 2.092 0.654 0.667 1.247 1.163 1.78 1.488v0l0.797 0.477-1.502 2.458c-0.511-0.101-1.133-0.318-1.865-0.65-0.732-0.332-1.39-0.7-1.973-1.105-0.574-0.401-1.172-0.99-1.794-1.766-0.624-0.783-1.102-1.648-1.433-2.596v0c-0.709-2.027-0.517-3.949 0.575-5.767 1.087-1.815 2.846-3.149 5.279-3.999v0c3.05-1.067 6.039-1.116 8.969-0.146 2.923 0.972 4.801 2.646 5.632 5.022v0c0.639 1.827 0.622 3.429-0.051 4.806-0.667 1.374-1.927 2.386-3.779 3.034v0c-1.104 0.386-2.424 0.635-3.96 0.745v0l-1.048-0.473-4.144-9.082c-2.683 1.415-3.635 3.235-2.856 5.462zM261.218 96.493v0c-0.384-1.098-1.151-1.869-2.3-2.314-1.147-0.438-2.432-0.479-3.854-0.121v0l3.018 6.105c0.6-0.126 1.09-0.255 1.471-0.389v0c1.671-0.585 2.227-1.679 1.665-3.281z" fill="#65b09f" data-fill-palette-color="primary"></path><path d="M9.146 138.774c0-1.948 1.579-3.528 3.527-3.528 1.948 0 3.528 1.579 3.528 3.528 0 1.948-1.579 3.528-3.528 3.528-1.948 0-3.528-1.579-3.527-3.528z" fill="#65b09f" data-fill-palette-color="primary"></path><path d="M258.656 138.774c0-1.948 1.579-3.528 3.528-3.528 1.948 0 3.528 1.579 3.527 3.528 0 1.948-1.579 3.528-3.527 3.528-1.948 0-3.528-1.579-3.528-3.528z" fill="#65b09f" data-fill-palette-color="primary"></path></g><g id="text-1"><path d="M19.544 190.176v0c-0.794 0.27-1.541 0.395-2.239 0.374-0.698-0.021-1.343-0.154-1.936-0.399-0.591-0.239-1.133-0.581-1.627-1.028-0.492-0.44-0.94-0.937-1.344-1.49-0.4-0.562-0.757-1.17-1.07-1.823-0.319-0.652-0.593-1.313-0.821-1.983v0c-0.306-0.901-0.518-1.719-0.635-2.453-0.121-0.726-0.161-1.449-0.12-2.168 0.044-0.713 0.166-1.452 0.366-2.218 0.194-0.764 0.455-1.627 0.784-2.591v0l3.586 2.235c-0.442 0.464-0.799 1.005-1.071 1.621-0.28 0.612-0.491 1.224-0.632 1.837-0.143 0.607-0.217 1.177-0.224 1.71-0.009 0.527 0.036 0.937 0.135 1.231v0c0.081 0.238 0.183 0.507 0.306 0.806 0.117 0.302 0.253 0.601 0.41 0.897 0.15 0.298 0.324 0.584 0.522 0.859 0.196 0.268 0.416 0.494 0.659 0.676 0.243 0.182 0.514 0.3 0.811 0.353 0.293 0.061 0.611 0.033 0.956-0.084v0c0.357-0.121 0.638-0.318 0.845-0.592 0.205-0.279 0.355-0.599 0.449-0.958 0.1-0.362 0.155-0.754 0.165-1.177 0.01-0.422 0.003-0.842-0.02-1.259-0.03-0.416-0.064-0.816-0.104-1.2-0.04-0.384-0.07-0.719-0.091-1.006v0c-0.026-0.528-0.059-1.086-0.098-1.673-0.043-0.579-0.06-1.162-0.051-1.751 0.003-0.587 0.048-1.161 0.137-1.722 0.089-0.56 0.246-1.082 0.473-1.564 0.233-0.484 0.551-0.913 0.954-1.287 0.401-0.381 0.92-0.679 1.559-0.897v0c1.176-0.4 2.238-0.499 3.185-0.298 0.954 0.199 1.798 0.599 2.534 1.201 0.735 0.601 1.368 1.356 1.9 2.264 0.532 0.908 0.969 1.865 1.312 2.872v0c0.234 0.688 0.409 1.438 0.525 2.251 0.124 0.816 0.168 1.632 0.13 2.447-0.028 0.819-0.135 1.613-0.321 2.38-0.181 0.76-0.457 1.436-0.827 2.03v0l-3.606-2.229c0.553-0.446 0.992-0.931 1.317-1.452 0.323-0.528 0.555-1.057 0.696-1.587 0.139-0.536 0.199-1.055 0.182-1.559-0.024-0.501-0.102-0.946-0.234-1.334v0c-0.128-0.375-0.287-0.792-0.478-1.251-0.193-0.465-0.432-0.879-0.715-1.243-0.291-0.362-0.632-0.637-1.024-0.824-0.398-0.186-0.86-0.189-1.385-0.011v0c-0.375 0.128-0.669 0.322-0.881 0.582-0.209 0.267-0.363 0.574-0.461 0.922-0.096 0.354-0.146 0.73-0.15 1.129-0.008 0.407 0.002 0.816 0.029 1.225 0.03 0.416 0.068 0.814 0.114 1.197 0.046 0.382 0.076 0.728 0.091 1.036v0c0.026 0.528 0.059 1.086 0.098 1.674 0.047 0.591 0.069 1.177 0.064 1.757-0.009 0.589-0.052 1.169-0.131 1.741-0.084 0.573-0.239 1.104-0.463 1.591-0.233 0.484-0.553 0.917-0.961 1.301-0.399 0.387-0.924 0.691-1.574 0.912z" fill="#65b09f" data-fill-palette-color="primary"></path><path d="M36.521 210.868v0c-1.126 0.64-2.379 1.17-3.759 1.59-1.375 0.416-2.789 0.715-4.245 0.896-1.453 0.172-2.889 0.213-4.307 0.122-1.422-0.096-2.743-0.341-3.963-0.735v0l-0.052-2.398c0.633-0.01 1.313-0.07 2.041-0.18 0.728-0.11 1.479-0.259 2.253-0.448 0.777-0.198 1.563-0.425 2.361-0.68 0.797-0.255 1.573-0.529 2.326-0.821 0.76-0.295 1.484-0.604 2.175-0.928 0.684-0.32 1.311-0.642 1.879-0.965v0c0.373-0.212 0.767-0.455 1.182-0.729 0.415-0.274 0.808-0.577 1.181-0.91 0.379-0.337 0.719-0.694 1.022-1.071 0.308-0.38 0.54-0.782 0.694-1.204 0.155-0.423 0.222-0.867 0.2-1.334-0.022-0.466-0.172-0.944-0.449-1.432v0c-0.274-0.483-0.628-0.851-1.062-1.106-0.43-0.249-0.903-0.418-1.416-0.506-0.514-0.088-1.056-0.107-1.627-0.056-0.571 0.051-1.133 0.146-1.685 0.285-0.546 0.136-1.068 0.307-1.566 0.514-0.492 0.204-0.922 0.41-1.29 0.619v0l-8.358 4.75-2.782-4.895 22.809-12.961 2.776 4.885-8.59 4.883c1.266 0.101 2.408 0.467 3.427 1.096 1.01 0.627 1.83 1.495 2.459 2.603v0c0.656 1.155 1.041 2.266 1.154 3.334 0.107 1.071-0.011 2.081-0.354 3.028-0.349 0.951-0.905 1.825-1.667 2.623-0.759 0.804-1.682 1.514-2.767 2.131z" fill="#65b09f" data-fill-palette-color="primary"></path><path d="M59.363 224.433l-14.323 12.753-3.737-4.197 1.71-1.522c-1.115 0.109-2.148-0.043-3.098-0.453-0.95-0.401-1.797-1.019-2.539-1.853v0c-0.975-1.095-1.651-2.246-2.025-3.452-0.375-1.206-0.492-2.406-0.353-3.601 0.149-1.194 0.536-2.353 1.163-3.477 0.632-1.129 1.468-2.157 2.509-3.084v0c1.041-0.927 2.156-1.637 3.346-2.13 1.189-0.493 2.385-0.744 3.589-0.754 1.208-0.005 2.386 0.251 3.535 0.767 1.154 0.511 2.219 1.315 3.195 2.41v0c0.492 0.553 0.876 1.153 1.152 1.801 0.285 0.648 0.462 1.314 0.53 1.996 0.072 0.687 0.035 1.38-0.113 2.079-0.139 0.699-0.386 1.37-0.741 2.013v0l4.763-0.91zM48.478 226.561v0c0.37-0.33 0.747-0.696 1.131-1.1 0.379-0.409 0.732-0.837 1.057-1.287 0.321-0.454 0.592-0.925 0.812-1.413 0.229-0.487 0.375-0.984 0.437-1.491 0.062-0.507 0.016-1.01-0.137-1.51-0.149-0.505-0.434-0.994-0.856-1.467v0c-0.417-0.469-0.868-0.801-1.353-0.998-0.475-0.196-0.966-0.29-1.472-0.282-0.51 0.003-1.021 0.091-1.531 0.262-0.515 0.167-1.019 0.386-1.512 0.657-0.484 0.271-0.946 0.572-1.386 0.902-0.445 0.325-0.847 0.648-1.208 0.969v0c-0.365 0.325-0.737 0.692-1.116 1.101-0.384 0.404-0.738 0.83-1.064 1.279-0.321 0.454-0.594 0.927-0.82 1.419-0.234 0.492-0.38 0.989-0.437 1.491-0.067 0.502-0.03 1 0.11 1.495 0.139 0.504 0.418 0.991 0.835 1.459v0c0.382 0.429 0.812 0.733 1.288 0.91 0.476 0.177 0.977 0.258 1.502 0.242 0.52-0.012 1.047-0.101 1.581-0.267 0.534-0.166 1.051-0.374 1.553-0.626 0.501-0.252 0.974-0.531 1.417-0.837 0.449-0.311 0.838-0.614 1.169-0.908z" fill="#65b09f" data-fill-palette-color="primary"></path><path d="M75.579 238.94v0l-5.668 2.28c0.161-0.433 0.324-0.935 0.49-1.505 0.165-0.57 0.269-1.142 0.312-1.714 0.048-0.568-0.005-1.113-0.158-1.634-0.144-0.522-0.443-0.955-0.897-1.297v0c-0.411-0.31-0.852-0.473-1.32-0.487-0.465-0.02-0.93 0.06-1.396 0.238-0.47 0.184-0.934 0.438-1.394 0.762-0.459 0.324-0.894 0.675-1.303 1.052-0.404 0.382-0.771 0.764-1.099 1.145-0.333 0.386-0.609 0.724-0.828 1.015v0l-5.789 7.675-4.494-3.39 11.548-15.311 1.725 1.301-0.872 4.942c0.676-0.392 1.358-0.709 2.047-0.952 0.679-0.241 1.358-0.379 2.036-0.413 0.679-0.034 1.354 0.049 2.024 0.247 0.675 0.203 1.344 0.555 2.009 1.056v0c0.343 0.259 0.703 0.576 1.081 0.953 0.384 0.38 0.727 0.792 1.03 1.236 0.303 0.444 0.542 0.905 0.717 1.385 0.185 0.479 0.251 0.951 0.199 1.416z" fill="#65b09f" data-fill-palette-color="primary"></path><path d="M78.7 249.772v0c0.545 0.445 1.104 0.864 1.676 1.256 0.575 0.386 1.172 0.735 1.791 1.048v0c0.655 0.33 1.291 0.573 1.908 0.729 0.623 0.159 1.214 0.198 1.773 0.117 0.556-0.09 1.074-0.317 1.553-0.682 0.486-0.362 0.91-0.902 1.274-1.622v0c0.295-0.584 0.484-1.158 0.569-1.722 0.085-0.564 0.058-1.099-0.079-1.605-0.14-0.5-0.388-0.962-0.744-1.385-0.356-0.424-0.835-0.787-1.437-1.091v0c-0.56-0.283-1.12-0.435-1.678-0.458-0.555-0.014-1.092 0.067-1.61 0.243-0.521 0.181-1.018 0.441-1.492 0.779-0.477 0.344-0.92 0.731-1.329 1.161-0.412 0.421-0.783 0.87-1.113 1.348-0.33 0.478-0.609 0.943-0.838 1.398v0c-0.042 0.083-0.082 0.162-0.121 0.238-0.039 0.077-0.073 0.159-0.103 0.248zM92.759 252.623v0c-0.354 0.702-0.785 1.269-1.292 1.702-0.501 0.436-1.053 0.76-1.656 0.973-0.601 0.222-1.229 0.346-1.885 0.37-0.659 0.03-1.327-0.011-2.003-0.122-0.676-0.112-1.341-0.284-1.993-0.516-0.661-0.23-1.284-0.492-1.868-0.787v0c-0.743-0.375-1.448-0.797-2.114-1.266-0.666-0.469-1.294-0.993-1.883-1.571v0c-0.221 0.703-0.362 1.408-0.424 2.117-0.056 0.712 0.004 1.386 0.179 2.022 0.172 0.642 0.483 1.235 0.934 1.78 0.447 0.551 1.066 1.026 1.856 1.425v0c0.519 0.262 1.058 0.434 1.616 0.515 0.552 0.079 1.097 0.076 1.636-0.007 0.541-0.09 1.062-0.256 1.562-0.5 0.506-0.241 0.973-0.557 1.399-0.948v0l1.762 1.899c-0.717 0.615-1.505 1.061-2.362 1.339-0.855 0.287-1.732 0.433-2.63 0.438-0.907 0.009-1.807-0.101-2.698-0.328-0.9-0.225-1.746-0.536-2.537-0.935v0c-1.304-0.658-2.399-1.487-3.284-2.49-0.88-0.999-1.522-2.096-1.926-3.291-0.404-1.195-0.556-2.456-0.457-3.782 0.099-1.326 0.478-2.641 1.136-3.945v0c0.658-1.304 1.49-2.39 2.498-3.258 1.008-0.868 2.112-1.495 3.313-1.881 1.201-0.386 2.463-0.519 3.786-0.399 1.332 0.117 2.65 0.504 3.954 1.162v0c0.631 0.318 1.255 0.688 1.871 1.11 0.622 0.425 1.194 0.891 1.715 1.397 0.527 0.51 0.992 1.055 1.395 1.636 0.394 0.583 0.683 1.206 0.867 1.869 0.187 0.657 0.252 1.341 0.196 2.053-0.059 0.718-0.28 1.457-0.663 2.219z" fill="#65b09f" data-fill-palette-color="primary"></path><path d="M123.537 253.634l3.828 0.665-9.76 15.426c-1.118 1.764-2.319 3.49-3.605 5.178-1.287 1.695-2.642 3.3-4.065 4.817v0l-1.931-1.683c0.358-0.441 0.779-0.951 1.262-1.531 0.483-0.58 0.963-1.184 1.441-1.812 0.477-0.621 0.926-1.241 1.348-1.858 0.422-0.617 0.764-1.192 1.024-1.724v0l-5.009-20.163 5.536 0.961 3.388 13.746z" fill="#65b09f" data-fill-palette-color="primary"></path><path d="M150.442 263.687v0c0.009 0.998-0.115 1.934-0.372 2.808-0.256 0.881-0.616 1.694-1.078 2.438-0.469 0.744-1.031 1.417-1.687 2.017-0.662 0.601-1.384 1.109-2.167 1.525-0.789 0.417-1.635 0.738-2.538 0.965-0.897 0.233-1.821 0.353-2.772 0.361v0c-0.951 0.008-1.877-0.096-2.778-0.312-0.9-0.21-1.749-0.516-2.546-0.919-0.79-0.403-1.521-0.898-2.194-1.487-0.673-0.589-1.247-1.251-1.722-1.987-0.476-0.736-0.85-1.542-1.122-2.418-0.272-0.883-0.413-1.817-0.421-2.801v0c-0.009-0.984 0.115-1.917 0.372-2.799 0.256-0.881 0.616-1.694 1.078-2.438 0.462-0.751 1.025-1.423 1.687-2.017 0.662-0.601 1.384-1.109 2.167-1.525 0.789-0.417 1.632-0.738 2.529-0.964 0.897-0.233 1.821-0.353 2.772-0.362v0c0.951-0.008 1.877 0.096 2.778 0.312 0.907 0.21 1.759 0.516 2.555 0.919 0.79 0.403 1.521 0.898 2.194 1.487 0.666 0.582 1.24 1.244 1.722 1.987 0.476 0.736 0.85 1.542 1.122 2.418 0.272 0.876 0.412 1.807 0.421 2.792zM144.733 263.737v0c-0.005-0.529-0.039-1.09-0.104-1.684-0.071-0.587-0.179-1.168-0.322-1.741-0.15-0.567-0.353-1.114-0.61-1.64-0.256-0.52-0.567-0.976-0.934-1.369-0.367-0.387-0.806-0.697-1.316-0.93-0.511-0.233-1.103-0.347-1.777-0.341v0c-0.647 0.006-1.218 0.133-1.712 0.382-0.493 0.249-0.927 0.576-1.299 0.982-0.366 0.406-0.669 0.875-0.909 1.406-0.246 0.537-0.443 1.091-0.59 1.66-0.154 0.57-0.261 1.145-0.322 1.728-0.061 0.582-0.089 1.127-0.084 1.636v0c0.005 0.509 0.042 1.054 0.113 1.634 0.071 0.581 0.189 1.158 0.353 1.732 0.157 0.573 0.363 1.123 0.619 1.649 0.249 0.526 0.561 0.989 0.934 1.39 0.38 0.4 0.819 0.72 1.317 0.959 0.498 0.24 1.07 0.357 1.717 0.352v0c0.661-0.006 1.244-0.13 1.751-0.373 0.507-0.242 0.943-0.567 1.31-0.973 0.366-0.4 0.67-0.862 0.909-1.386 0.24-0.518 0.433-1.068 0.58-1.65 0.14-0.576 0.241-1.158 0.302-1.747 0.054-0.582 0.079-1.141 0.074-1.676z" fill="#65b09f" data-fill-palette-color="primary"></path><path d="M155.803 264.234v0c-0.185-0.852-0.302-1.753-0.352-2.702-0.051-0.956-0.041-1.921 0.032-2.897 0.078-0.984 0.213-1.966 0.406-2.947 0.2-0.983 0.453-1.937 0.76-2.862v0l4.01-0.869c-0.095 0.872-0.154 1.771-0.177 2.696-0.015 0.929-0.002 1.849 0.04 2.759 0.043 0.917 0.117 1.803 0.221 2.66 0.099 0.864 0.227 1.658 0.383 2.381v0c0.092 0.426 0.21 0.874 0.352 1.344 0.144 0.476 0.316 0.942 0.516 1.399 0.202 0.463 0.441 0.898 0.718 1.304 0.269 0.401 0.583 0.742 0.942 1.024 0.358 0.281 0.759 0.478 1.203 0.591 0.45 0.112 0.953 0.108 1.508-0.012v0c0.536-0.116 0.994-0.344 1.373-0.683 0.373-0.338 0.678-0.738 0.916-1.202 0.238-0.464 0.417-0.976 0.54-1.537 0.117-0.553 0.188-1.112 0.214-1.679 0.032-0.568 0.028-1.118-0.012-1.65-0.039-0.526-0.104-0.995-0.194-1.408v0l-2.034-9.396 5.483-1.187 4.058 18.743-2.112 0.457-3.454-3.825c-0.158 0.798-0.4 1.54-0.725 2.226-0.318 0.684-0.719 1.302-1.201 1.852-0.484 0.544-1.05 1.005-1.699 1.382-0.648 0.377-1.376 0.653-2.184 0.827v0c-1.304 0.282-2.483 0.318-3.536 0.107-1.053-0.211-1.98-0.622-2.782-1.233-0.795-0.612-1.463-1.4-2.002-2.365-0.54-0.965-0.944-2.064-1.211-3.298z" fill="#65b09f" data-fill-palette-color="primary"></path><path d="M208.755 246.183v0c0.411 0.732 0.67 1.443 0.777 2.133 0.107 0.69 0.094 1.349-0.039 1.976-0.127 0.624-0.364 1.22-0.713 1.787-0.343 0.564-0.749 1.095-1.219 1.594-0.479 0.496-1.012 0.958-1.597 1.386-0.583 0.433-1.182 0.823-1.799 1.169v0c-0.83 0.466-1.595 0.823-2.296 1.073-0.692 0.252-1.395 0.423-2.11 0.514-0.709 0.087-1.458 0.102-2.247 0.045-0.786-0.051-1.683-0.15-2.69-0.297v0l1.542-3.934c0.537 0.35 1.134 0.602 1.789 0.757 0.653 0.164 1.293 0.259 1.921 0.285 0.623 0.029 1.197-0.001 1.722-0.091 0.519-0.087 0.915-0.207 1.185-0.359v0c0.219-0.123 0.465-0.272 0.738-0.448 0.276-0.17 0.545-0.359 0.807-0.567 0.265-0.202 0.515-0.426 0.749-0.67 0.228-0.242 0.409-0.499 0.544-0.772 0.135-0.273 0.201-0.56 0.198-0.861 0.006-0.299-0.079-0.607-0.257-0.924v0c-0.184-0.328-0.43-0.57-0.736-0.724-0.312-0.151-0.653-0.239-1.024-0.266-0.374-0.032-0.77-0.015-1.187 0.053-0.417 0.067-0.828 0.151-1.235 0.25-0.403 0.105-0.79 0.212-1.161 0.322-0.37 0.109-0.694 0.2-0.972 0.273v0c-0.515 0.122-1.057 0.256-1.627 0.402-0.561 0.148-1.132 0.272-1.712 0.37-0.578 0.105-1.15 0.165-1.718 0.18-0.567 0.015-1.109-0.044-1.624-0.179-0.519-0.141-0.999-0.375-1.44-0.703-0.447-0.325-0.836-0.781-1.166-1.369v0c-0.608-1.083-0.9-2.109-0.876-3.077 0.021-0.974 0.26-1.878 0.718-2.71 0.457-0.832 1.083-1.593 1.878-2.282 0.795-0.689 1.657-1.294 2.585-1.815v0c0.634-0.356 1.339-0.665 2.116-0.927 0.78-0.271 1.574-0.463 2.382-0.576 0.811-0.122 1.61-0.162 2.399-0.119 0.78 0.04 1.496 0.187 2.147 0.443v0l-1.532 3.951c-0.54-0.462-1.096-0.805-1.669-1.029-0.579-0.221-1.141-0.352-1.687-0.394-0.552-0.039-1.074-0.003-1.566 0.106-0.489 0.115-0.911 0.273-1.269 0.474v0c-0.346 0.194-0.726 0.427-1.142 0.698-0.422 0.275-0.785 0.585-1.091 0.931-0.303 0.352-0.51 0.737-0.624 1.157-0.11 0.425-0.029 0.88 0.243 1.364v0c0.194 0.346 0.438 0.599 0.733 0.759 0.3 0.157 0.63 0.252 0.99 0.286 0.365 0.03 0.744 0.01 1.138-0.059 0.402-0.067 0.802-0.151 1.199-0.253 0.403-0.105 0.788-0.215 1.156-0.331 0.367-0.115 0.701-0.208 1.002-0.279v0c0.515-0.122 1.057-0.256 1.627-0.402 0.572-0.155 1.145-0.283 1.717-0.384 0.581-0.099 1.159-0.162 1.735-0.189 0.579-0.022 1.129 0.033 1.65 0.164 0.519 0.141 1.003 0.376 1.453 0.707 0.453 0.321 0.848 0.782 1.185 1.381z" fill="#65b09f" data-fill-palette-color="primary"></path><path d="M212.902 229.187l10.685 13.167-4.371 3.547-10.685-13.167-2.709 2.198-1.399-1.724 2.709-2.198-4.447-5.479 4.371-3.548 4.447 5.48 4.51-3.66 1.398 1.724z" fill="#65b09f" data-fill-palette-color="primary"></path><path d="M238.432 212.882v0c0.748 0.66 1.361 1.378 1.84 2.154 0.484 0.78 0.848 1.59 1.092 2.432 0.24 0.846 0.364 1.714 0.372 2.602 0.004 0.894-0.101 1.771-0.314 2.632-0.218 0.865-0.545 1.71-0.981 2.532-0.426 0.822-0.955 1.59-1.584 2.303v0c-0.63 0.713-1.326 1.332-2.09 1.857-0.758 0.529-1.553 0.955-2.385 1.279-0.828 0.318-1.685 0.53-2.573 0.637-0.887 0.107-1.764 0.091-2.629-0.048-0.865-0.138-1.715-0.399-2.548-0.783-0.839-0.388-1.627-0.908-2.364-1.559v0c-0.738-0.652-1.349-1.367-1.833-2.148-0.484-0.78-0.848-1.59-1.092-2.432-0.249-0.846-0.373-1.714-0.372-2.603-0.004-0.894 0.101-1.771 0.315-2.631 0.218-0.865 0.542-1.707 0.974-2.525 0.426-0.822 0.955-1.59 1.584-2.303v0c0.63-0.713 1.326-1.332 2.09-1.857 0.763-0.534 1.56-0.963 2.392-1.286 0.828-0.318 1.685-0.53 2.572-0.637 0.878-0.106 1.754-0.09 2.629 0.048 0.865 0.138 1.715 0.399 2.548 0.783 0.834 0.384 1.619 0.901 2.357 1.553zM234.653 217.16v0c-0.396-0.35-0.837-0.699-1.321-1.048-0.484-0.34-0.988-0.648-1.511-0.925-0.522-0.267-1.064-0.482-1.627-0.643-0.557-0.157-1.105-0.231-1.643-0.221-0.533 0.014-1.057 0.133-1.571 0.357-0.515 0.224-0.996 0.588-1.442 1.094v0c-0.429 0.485-0.715 0.995-0.86 1.528-0.145 0.533-0.191 1.074-0.138 1.623 0.057 0.544 0.203 1.083 0.437 1.616 0.235 0.542 0.515 1.059 0.84 1.549 0.321 0.495 0.677 0.96 1.07 1.394 0.392 0.434 0.779 0.82 1.16 1.157v0c0.381 0.337 0.812 0.673 1.291 1.008 0.48 0.335 0.987 0.634 1.523 0.896 0.531 0.267 1.078 0.481 1.641 0.642 0.558 0.167 1.111 0.245 1.657 0.234 0.551-0.015 1.083-0.128 1.594-0.337 0.511-0.21 0.981-0.557 1.41-1.042v0c0.437-0.495 0.735-1.012 0.894-1.552 0.159-0.539 0.209-1.08 0.152-1.624-0.052-0.54-0.193-1.074-0.422-1.603-0.224-0.524-0.504-1.036-0.84-1.534-0.335-0.489-0.7-0.954-1.097-1.393-0.396-0.429-0.795-0.821-1.197-1.176z" fill="#65b09f" data-fill-palette-color="primary"></path><path d="M243.211 189.685v0l2.909 5.372c-0.449-0.111-0.966-0.216-1.551-0.316-0.586-0.1-1.165-0.138-1.738-0.115-0.57 0.017-1.105 0.131-1.605 0.343-0.503 0.202-0.898 0.548-1.187 1.038v0c-0.262 0.444-0.373 0.9-0.334 1.367 0.033 0.464 0.165 0.918 0.395 1.36 0.236 0.446 0.541 0.878 0.915 1.298 0.374 0.42 0.772 0.811 1.194 1.176 0.426 0.358 0.846 0.679 1.262 0.962 0.422 0.287 0.789 0.522 1.102 0.707v0l8.283 4.879-2.857 4.851-16.523-9.735 1.096-1.861 5.009 0.304c-0.466-0.627-0.859-1.269-1.179-1.924-0.317-0.647-0.531-1.306-0.641-1.977-0.111-0.671-0.105-1.35 0.016-2.038 0.125-0.693 0.398-1.399 0.821-2.116v0c0.218-0.37 0.492-0.764 0.823-1.183 0.334-0.424 0.705-0.812 1.111-1.163 0.406-0.351 0.838-0.641 1.295-0.871 0.455-0.238 0.916-0.358 1.384-0.358z" fill="#65b09f" data-fill-palette-color="primary"></path><path d="M247.294 173.292l1.329-3.651 13.464 12.326c1.54 1.411 3.027 2.898 4.462 4.461 1.441 1.565 2.783 3.182 4.025 4.85v0l-1.997 1.604c-0.371-0.43-0.799-0.934-1.285-1.511-0.486-0.578-0.996-1.157-1.529-1.738-0.528-0.579-1.058-1.13-1.592-1.655-0.533-0.525-1.039-0.962-1.516-1.312v0l-20.73 1.378 1.922-5.28 14.127-0.913z" fill="#65b09f" data-fill-palette-color="primary"></path></g></svg></g></svg></g></svg></g></svg></g><defs></defs></svg><rect width="279.72" height="279.72" fill="none" stroke="none" visibility="hidden"></rect></g></svg></g></svg>